#!OML:ASF Y:\EmotionMaleHayes\Project 1\Capture day 1\Session 1\Male1.ASF
:FULLY-SPECIFIED
:DEGREES
918
root 11.9568 16.4923 -10.438 -197.518 38.5248 -205.439
lowerback 2.03295 -3.53304 -18.6858
upperback 1.21953 -4.69698 -2.50272
thorax 1.49634 -2.40132 7.69696
lowerneck -17.8947 -5.97924 -3.07259
upperneck 22.5349 -9.12924 7.83176
head 10.7456 -3.32118 2.00728
rclavicle 2.32578e-014 -1.51076e-014
rhumerus -52.778 -8.34521 -72.6443
rradius 29.7934
rwrist 3.32878
rhand -8.99413 -33.088
rfingers 7.12502
rthumb 16.9521 -62.3682
lclavicle 2.32578e-014 -1.51076e-014
lhumerus -8.14254 -21.9599 81.001
lradius 44.1517
lwrist -2.33775
lhand -14.5933 -23.9364
lfingers 7.12502
lthumb 11.557 5.72501
rfemur -21.4495 -13.3371 3.38239
rtibia 3.65715
rfoot -17.9369 -14.369
rtoes 12.4737
lfemur 20.1031 8.60315 -38.9278
ltibia 9.78408
lfoot -20.7626 5.93794
ltoes -22.0358
919
root 12.0539 16.4779 -10.5337 -197.423 38.6408 -205.369
lowerback 1.96632 -3.57247 -18.6262
upperback 1.1681 -4.75475 -2.35308
thorax 1.49995 -2.43461 7.82179
lowerneck -17.9454 -5.92123 -3.08998
upperneck 22.4579 -9.04874 7.86467
head 10.7247 -3.28539 2.03236
rclavicle -4.9398e-014 -6.12257e-014
rhumerus -52.9784 -8.55878 -72.4417
rradius 29.8462
rwrist 3.57994
rhand -8.84744 -33.0143
rfingers 7.12502
rthumb 17.0933 -62.2823
lclavicle -4.9398e-014 -6.12257e-014
lhumerus -8.41343 -22.2372 81.6533
lradius 44.091
lwrist -2.33412
lhand -14.3776 -23.6797
lfingers 7.12502
lthumb 11.765 5.96992
rfemur -21.3757 -13.3556 3.49485
rtibia 3.99121
rfoot -17.9325 -14.8644
rtoes 14.6153
lfemur 20.3769 8.19526 -38.8819
ltibia 10.157
lfoot -21.1094 5.44551
ltoes -18.4969
920
root 12.1413 16.4618 -10.6342 -197.21 38.9527 -205.292
lowerback 1.78198 -3.64309 -18.4036
upperback 1.09176 -4.83524 -2.16301
thorax 1.53792 -2.48225 7.89415
lowerneck -18.2918 -5.76965 -2.72168
upperneck 22.6848 -8.82839 7.33098
head 10.8123 -3.20581 1.80778
rclavicle 7.20594e-014 -6.99722e-014
rhumerus -52.9432 -8.45014 -72.3961
rradius 29.7552
rwrist 3.52715
rhand -8.87371 -32.71
rfingers 7.12502
rthumb 17.068 -61.9802
lclavicle 7.20594e-014 -6.99722e-014
lhumerus -8.69529 -22.5935 82.249
lradius 44.1645
lwrist -2.20264
lhand -14.4444 -22.7394
lfingers 7.12502
lthumb 11.7006 6.9139
rfemur -21.6733 -13.4849 3.81085
rtibia 4.73811
rfoot -17.7005 -15.3149
rtoes 17.032
lfemur 20.4565 7.87669 -38.9396
ltibia 10.444
lfoot -21.1466 5.88611
ltoes -19.4964
921
root 12.2353 16.4494 -10.7346 -197.113 39.1929 -205.288
lowerback 1.68343 -3.74692 -18.273
upperback 1.00381 -4.97535 -2.02592
thorax 1.53509 -2.55272 7.96186
lowerneck -18.5755 -5.66106 -2.42591
upperneck 22.8853 -8.69901 7.01616
head 10.9018 -3.14752 1.6609
rclavicle 5.46658e-015 1.82882e-014
rhumerus -52.9067 -8.47985 -72.2534
rradius 29.6739
rwrist 3.85184
rhand -8.67091 -32.3555
rfingers 7.12502
rthumb 17.2632 -61.6087
lclavicle 5.46658e-015 1.82882e-014
lhumerus -9.03804 -22.8257 82.723
lradius 43.9661
lwrist -1.92215
lhand -14.1846 -22.6442
lfingers 7.12502
lthumb 11.9511 6.99466
rfemur -21.7149 -13.4547 3.99564
rtibia 5.29812
rfoot -17.5691 -16.2632
rtoes 21.1479
lfemur 20.639 7.90358 -38.8746
ltibia 10.6574
lfoot -20.7369 6.7253
ltoes -24.5766
922
root 12.3358 16.4402 -10.8354 -197.007 39.3784 -205.269
lowerback 1.57481 -3.8576 -18.1669
upperback 0.91717 -5.12191 -1.88365
thorax 1.54428 -2.62752 8.04664
lowerneck -18.8027 -5.6654 -2.65359
upperneck 22.8821 -8.73405 7.37446
head 10.9779 -3.1332 1.81699
rclavicle -1.0148e-013 -3.49861e-014
rhumerus -52.9138 -8.58622 -72.0629
rradius 29.7219
rwrist 4.0521
rhand -8.37089 -32.4146
rfingers 7.12502
rthumb 17.5519 -61.6423
lclavicle -1.0148e-013 -3.49861e-014
lhumerus -9.47482 -23.0222 83.2701
lradius 43.8803
lwrist -1.70114
lhand -13.7979 -22.5652
lfingers 7.12502
lthumb 12.324 7.05161
rfemur -21.8079 -13.9091 4.31181
rtibia 5.97972
rfoot -17.2529 -17.4114
rtoes 23.1361
lfemur 20.8947 7.89732 -38.7379
ltibia 10.8551
lfoot -20.4695 6.86646
ltoes -26.3129
923
root 12.4404 16.4344 -10.9405 -196.662 39.683 -204.826
lowerback 1.41126 -3.95236 -17.7052
upperback 0.868138 -5.2407 -1.63843
thorax 1.59344 -2.69754 8.04548
lowerneck -18.8772 -5.45318 -2.3321
upperneck 22.8271 -8.44879 7.04659
head 10.9221 -3.02106 1.68809
rclavicle -7.23576e-014 -3.18055e-014
rhumerus -52.9469 -8.5962 -71.9646
rradius 29.8796
rwrist 3.86155
rhand -8.10119 -32.9409
rfingers 7.12502
rthumb 17.8115 -62.1452
lclavicle -7.23576e-014 -3.18055e-014
lhumerus -9.93739 -23.0731 83.9103
lradius 43.7595
lwrist -1.80439
lhand -13.4914 -22.4656
lfingers 7.12502
lthumb 12.6195 7.13317
rfemur -21.8405 -14.707 5.1721
rtibia 6.60321
rfoot -16.5439 -18.6168
rtoes 21.9325
lfemur 21.2473 7.71065 -38.2928
ltibia 11.0159
lfoot -20.2633 6.93382
ltoes -26.5571
